<?xml version="1.0" encoding="utf-8"?>
<!-- Generator: Adobe Illustrator 18.1.1, SVG Export Plug-In . SVG Version: 6.00 Build 0)  -->
<svg version="1.1" id="Layer_1" xmlns="http://www.w3.org/2000/svg" xmlns:xlink="http://www.w3.org/1999/xlink" x="0px" y="0px"
	 viewBox="0 0 300 23.5" enable-background="new 0 0 300 23.5" xml:space="preserve">
<g>
	<g>
		<path d="M147.7,0.2H145l0,0h-14.2l0,0h-1.4c-0.3,0-0.5,0.2-0.6,0.4c-0.1,0.2-0.1,0.5,0.1,0.7c0.7,0.5,0.6,1.4,0.6,1.4v9.1v9.1
			c0,0,0,0.9-0.6,1.4c-0.2,0.1-0.2,0.4-0.1,0.7c0.1,0.2,0.3,0.4,0.6,0.4h1.4H145h0h0h2.6c0.3,0,0.6-0.3,0.6-0.6v-0.1V21v-3
			c0-0.2-0.1-0.4-0.3-0.5c-0.2-0.1-0.4-0.2-0.6-0.1c-0.3,0.1-0.4,0.3-0.6,0.5c-0.2,0.3-0.5,0.6-1.2,0.6l-10.3,0v-4.2l5.8,0l0.1,0
			c0.3,0,0.7,0.1,0.9,0.5c0.1,0.3,0.4,0.4,0.7,0.4c0.3-0.1,0.5-0.3,0.5-0.6V9c0-0.3-0.2-0.6-0.5-0.6c-0.3-0.1-0.6,0.1-0.7,0.4
			c-0.2,0.4-0.5,0.5-0.9,0.5l-0.1,0c0,0,0,0-0.1,0h-5.7V5l10.3,0c0.7,0.1,0.9,0.4,1.2,0.6c0.2,0.2,0.3,0.4,0.6,0.5
			c0.2,0.1,0.4,0,0.6-0.1c0.2-0.1,0.3-0.3,0.3-0.5v-3V0.9V0.8C148.3,0.5,148,0.2,147.7,0.2z"/>
		<path d="M87.9,16.4c0.1,0.9,0,2.2-0.6,3.5l0,0c-0.1,0.3-1.6,3.4-6.9,3.5h-0.1h0c-0.8,0-5-0.1-7.8-2.5c-0.1-0.1-3.6-2.8-3.6-7.2
			c0-0.1-0.1-2.7,0.2-4.6c0.1-0.7,1-6.5,6.6-8.5c0.2-0.1,2-0.7,4.9-0.7c0.4,0,0.9,0,1.3,0c0.4,0,2.3,0.3,3.9,0.3
			c0.6,0,1.1,0,1.4-0.1c0.2,0,0.4,0,0.5,0.1c0.1,0.1,0.2,0.3,0.2,0.5v5.7c0,0.3-0.2,0.5-0.4,0.6c-0.2,0.1-0.5,0-0.7-0.2
			c-0.7-0.9-2.4-2.4-5.7-2.4h-0.1c-0.2,0-4.3,0.1-5.2,4.2l0,0c-0.1,0.8-1.2,8,2.1,9.6l0,0c0,0,0,0,0,0c0,0,1.1,0.7,3.2,0.7
			c0.1,0,0.2,0,0.3,0c0,0,0,0,0,0h0h0l0.1,0c0.6,0,3.8-0.1,5.4-2.7c0.1-0.2,0.4-0.4,0.7-0.3C87.7,15.9,87.9,16.2,87.9,16.4z"/>
		<path d="M179.5,22.2c-1.4-1.2-3-5.4-3-5.5l-5.1-13.4c-0.5-1.4,0.2-1.9,0.2-2l0,0c0.2-0.1,0.4-0.4,0.3-0.7
			c-0.1-0.3-0.3-0.5-0.6-0.5h-6.9c-0.3,0-0.5,0.2-0.6,0.5c-0.1,0.3,0,0.6,0.3,0.7l0,0c0.1,0.1,0.8,0.6,0.3,2l-5.1,13.4
			c0,0-1.5,4.3-3,5.5c-0.2,0.2-0.3,0.4-0.2,0.7c0.1,0.2,0.3,0.4,0.6,0.4h7c0.3,0,0.6-0.3,0.6-0.6c0-0.3-0.2-0.5-0.5-0.6l0,0
			c-0.2-0.1-0.5-0.3-0.2-1.2l1.2-2.9h6.6l1.2,2.8l0,0c0.4,0.9-0.1,1.1-0.2,1.2l0,0c-0.3,0.1-0.5,0.4-0.5,0.7c0,0.3,0.3,0.6,0.6,0.6
			h6.5c0.3,0,0.5-0.2,0.6-0.4C179.8,22.6,179.7,22.4,179.5,22.2z M166.1,13.5l1.8-4.5l1.8,4.5H166.1z"/>
		<path d="M119.9,22.1c0,0-1.3-0.4-1.9-1.5l-2.2-4.5l-0.6-1.4l0.1-0.1c1-0.7,1.8-1.6,2.3-2.6c2-4.2,0.4-7.7-0.4-8.6l0,0c0,0,0,0,0,0
			l0,0c-2.2-2.9-6-3.1-6.7-3.1c-0.1,0-0.2,0-0.2,0H98.9c-0.3,0-0.5,0.2-0.6,0.4c-0.1,0.2-0.1,0.5,0.1,0.7c0.7,0.5,0.6,1.4,0.6,1.4
			v17.7c0,0.4,0,1.4-0.8,1.7c-0.3,0.1-0.5,0.4-0.4,0.7c0,0.3,0.3,0.5,0.6,0.5l7,0c0.3,0,0.6-0.2,0.6-0.5c0.1-0.3-0.1-0.6-0.4-0.7
			c-0.7-0.3-0.8-1.3-0.8-1.7l0-4.1h4.8l2.4,5.2c0,0,0.2,0.5-0.1,0.6c-0.3,0.1-0.5,0.4-0.5,0.7c0,0.3,0.3,0.6,0.6,0.6h7.7
			c0.3,0,0.6-0.2,0.6-0.6C120.5,22.4,120.2,22.1,119.9,22.1z M112.9,8.5c0,1.6-1.3,2.9-2.9,2.9h-5V5h5c1.6,0,2.9,1.3,2.9,2.9V8.5z"
			/>
		<path d="M241,0.2h-2.6l0,0h-14.2l0,0h-1.4c-0.3,0-0.5,0.2-0.6,0.4c-0.1,0.2-0.1,0.5,0.1,0.7c0.7,0.5,0.6,1.4,0.6,1.4v9.1v9.1
			c0,0,0,0.9-0.6,1.4c-0.2,0.1-0.2,0.4-0.1,0.7c0.1,0.2,0.3,0.4,0.6,0.4h1.4h14.2h0h0h2.6c0.3,0,0.6-0.3,0.6-0.6v-0.1V21v-3
			c0-0.2-0.1-0.4-0.3-0.5c-0.2-0.1-0.4-0.2-0.6-0.1c-0.3,0.1-0.4,0.3-0.6,0.5c-0.2,0.3-0.5,0.6-1.2,0.6l-10.3,0v-4.2l5.8,0l0.1,0
			c0.3,0,0.7,0.1,0.9,0.5c0.1,0.3,0.4,0.4,0.7,0.4c0.3-0.1,0.5-0.3,0.5-0.6V9c0-0.3-0.2-0.6-0.5-0.6c-0.3-0.1-0.6,0.1-0.7,0.4
			c-0.2,0.4-0.5,0.5-0.9,0.5l-0.1,0c0,0,0,0-0.1,0h-5.7V5L239,5c0.7,0.1,0.9,0.4,1.2,0.6c0.2,0.2,0.3,0.4,0.6,0.5
			c0.2,0.1,0.4,0,0.6-0.1c0.2-0.1,0.3-0.3,0.3-0.5v-3V0.9V0.8C241.6,0.5,241.3,0.2,241,0.2z"/>
		<path d="M272.7,22.1c0,0-1.3-0.4-1.9-1.5l-2.2-4.5l-0.6-1.4l0.1-0.1c1-0.7,1.8-1.6,2.3-2.6c2-4.2,0.4-7.7-0.4-8.6l0,0c0,0,0,0,0,0
			l0,0c-2.2-2.9-6-3.1-6.7-3.1c-0.1,0-0.2,0-0.2,0h-11.3c-0.3,0-0.5,0.2-0.6,0.4c-0.1,0.2-0.1,0.5,0.1,0.7c0.7,0.5,0.6,1.4,0.6,1.4
			l0,17.7c0,0.4-0.1,1.4-0.8,1.7c-0.3,0.1-0.5,0.4-0.4,0.7c0.1,0.3,0.3,0.5,0.6,0.5l7,0c0.3,0,0.6-0.2,0.6-0.5
			c0-0.3-0.1-0.6-0.4-0.7c-0.7-0.3-0.8-1.3-0.8-1.7l0-4.1h4.8l2.4,5.2c0,0,0.2,0.5-0.1,0.6c-0.3,0.1-0.5,0.4-0.5,0.7
			c0,0.3,0.3,0.6,0.6,0.6h7.7c0.3,0,0.6-0.2,0.6-0.6C273.3,22.4,273.1,22.1,272.7,22.1z M265.7,8.5c0,1.6-1.3,2.9-2.9,2.9h-5V5h5
			c1.6,0,2.9,1.3,2.9,2.9V8.5z"/>
		<path d="M299.8,1.3c-1.5,1.2-4.1,5.4-4.1,5.4l-3.9,6.1l0,7.6c0,0.4,0.2,1.5,0.8,1.7c0.3,0.1,0.5,0.4,0.4,0.7
			c-0.1,0.3-0.3,0.5-0.6,0.5h-3.6h-3.4c-0.3,0-0.6-0.2-0.6-0.5c-0.1-0.3,0.1-0.6,0.4-0.7c0.6-0.2,0.8-1.3,0.8-1.7l0-7.6l-4.1-6.1
			c0,0-2.4-4.2-3.9-5.4c-0.2-0.2-0.3-0.4-0.2-0.7s0.3-0.4,0.6-0.4h6.8c0.3,0,0.5,0.2,0.6,0.5c0.1,0.3-0.1,0.6-0.3,0.7
			c-0.2,0.1-0.7,0.4-0.4,1.1l0,0l3.8,5.7l3.8-5.7l0,0c0.2-0.7-0.2-1-0.4-1.1c-0.3-0.1-0.4-0.4-0.3-0.7c0.1-0.3,0.3-0.5,0.6-0.5h7
			c0.3,0,0.5,0.2,0.6,0.4C300.1,0.8,300,1.1,299.8,1.3z"/>
		<path d="M188.7,2.6c0-0.9-0.6-1.4-0.6-1.4c-0.2-0.2-0.2-0.4-0.1-0.7c0.1-0.2,0.3-0.4,0.6-0.4h5.4c0,0,0.1,0,0.1,0l0,0
			c0,0,0.1,0,0.1,0l0,0c0,0,0,0,0,0c0,0,0,0,0.1,0l0,0c0,0,0,0,0,0c0,0,0,0,0.1,0.1c0,0,0,0,0,0l5.8,8.7l5.7-8.5
			c0.2-0.4,0.5-0.5,0.8-0.5h5.2c0.3,0,0.5,0.2,0.6,0.4c0.1,0.2,0,0.5-0.1,0.7c-0.7,0.7-0.6,1.3-0.6,1.3c0,0,0,0,0,0l0,17.8
			c0,0.4,0.2,1.5,0.8,1.7c0.3,0.1,0.5,0.4,0.4,0.7c-0.1,0.3-0.3,0.5-0.6,0.5h-7c-0.3,0-0.6-0.2-0.6-0.5c-0.1-0.3,0.1-0.6,0.4-0.7
			c0.6-0.2,0.8-1.4,0.8-1.7l0-9.9l-5.1,7.5c0,0,0,0,0,0l0,0c0,0,0,0-0.1,0.1c0,0,0,0,0,0c0,0-0.1,0-0.1,0c0,0,0,0-0.1,0l-0.1,0
			c0,0,0,0,0,0c0,0-0.1,0-0.1,0c-0.1,0-0.1,0-0.1,0c0,0,0,0,0,0l-0.1,0c0,0,0,0,0,0c0,0-0.1,0-0.1,0c0,0,0,0,0,0l0,0
			c0,0,0,0-0.1-0.1l-5.2-7.6l0,10c0,0.4,0.2,1.5,0.8,1.7c0.3,0.1,0.5,0.4,0.4,0.7c-0.1,0.3-0.3,0.5-0.6,0.5l-7,0
			c-0.3,0-0.6-0.2-0.6-0.5c-0.1-0.3,0.1-0.6,0.4-0.7c0.6-0.2,0.8-1.3,0.8-1.7V2.6"/>
	</g>
	<path d="M47.7,1V0.4c0-0.1-0.1-0.2-0.2-0.2H0.4c-0.1,0-0.2,0.1-0.2,0.2V1c0,0.1,0.1,0.2,0.2,0.2h47.1C47.6,1.2,47.7,1.1,47.7,1z"/>
	<path d="M47.7,23.2v-0.5c0-0.1-0.1-0.2-0.2-0.2H0.4c-0.1,0-0.2,0.1-0.2,0.2v0.5c0,0.1,0.1,0.2,0.2,0.2h47.1
		C47.6,23.4,47.7,23.3,47.7,23.2z"/>
	<path d="M58.4,0.2h-0.5c-0.1,0-0.2,0.1-0.2,0.2v22.8c0,0.1,0.1,0.2,0.2,0.2h0.5c0.1,0,0.2-0.1,0.2-0.2V0.4
		C58.6,0.3,58.5,0.2,58.4,0.2z"/>
	<g>
		<path d="M25.4,12.4v-0.6c0-0.1-0.1-0.2-0.2-0.2h-3.4c-0.1,0-0.2,0.1-0.2,0.2v0.6c0,0.1,0.1,0.2,0.2,0.2h3.4
			C25.3,12.6,25.4,12.5,25.4,12.4z"/>
		<path d="M7.9,13.8c0,0.4,0,0.9-0.3,1.4l0,0c-0.1,0.1-0.7,1.4-2.8,1.4H4.7l0,0c-0.3,0-2.1,0-3.2-1c-0.1,0-1.5-1.2-1.5-3
			c0,0-0.1-1.1,0.1-1.9c0-0.3,0.4-2.7,2.7-3.5c0.1,0,0.8-0.3,2-0.3C5,7,5.2,7,5.3,7c0.2,0,0.9,0.1,1.6,0.1c0.2,0,0.4,0,0.6,0
			c0.1,0,0.2,0,0.2,0.1c0.1,0,0.1,0.1,0.1,0.2v2.3c0,0.1-0.1,0.2-0.2,0.2c-0.1,0-0.2,0-0.3-0.1c-0.3-0.4-1-1-2.3-1h0
			c-0.1,0-1.7,0-2.1,1.7v0c-0.1,0.3-0.5,3.3,0.9,3.9l0,0c0,0,0,0,0,0c0,0,0.4,0.3,1.3,0.3c0,0,0.1,0,0.1,0c0,0,0,0,0,0h0h0h0
			c0.3,0,1.6-0.1,2.2-1.1c0.1-0.1,0.2-0.1,0.3-0.1C7.8,13.6,7.8,13.6,7.9,13.8z"/>
		<g>
			<path d="M47.1,8.4L47.1,8.4C47.1,8.4,47.1,8.4,47.1,8.4L47.1,8.4c-0.9-1.2-2.5-1.3-2.8-1.3c0,0-0.1,0-0.1,0h-2.2h0h-2.5
				c-0.1,0-0.2,0.1-0.2,0.2c0,0.1,0,0.2,0.1,0.3c0.3,0.2,0.3,0.6,0.3,0.6l0,7.2c0,0.2,0,0.6-0.3,0.7c-0.1,0-0.2,0.2-0.2,0.3
				c0,0.1,0.1,0.2,0.3,0.2h2.9c0.1,0,0.2-0.1,0.3-0.2c0-0.1-0.1-0.2-0.2-0.3c-0.3-0.1-0.3-0.5-0.3-0.7v-1.7l0,0v0h2.2c0,0,0,0,0.1,0
				c0.3,0,1.9-0.1,2.8-1.3l0,0c0,0,0,0,0,0l0,0c0.2-0.3,0.6-1,0.5-2C47.7,9.4,47.3,8.7,47.1,8.4z M45.3,10.4v0.1
				c0,0.7-0.5,1.2-1.2,1.2h-2V9.1h2c0.7,0,1.2,0.5,1.2,1.2V10.4z"/>
		</g>
		<path d="M14.9,16.6c3.7,0,4.6-3,4.6-4.9c0-2-1.2-4.7-4.6-4.7h-0.3c-3.3,0-4.6,2.7-4.6,4.7c0,1.9,0.9,4.9,4.6,4.9H14.9z M14.8,14.8
			c-1.2,0-2.1-1.1-2.1-2.9c0-1.8,0.9-2.9,2.1-2.9c1.2,0,2.1,1.1,2.1,2.9C16.9,13.7,15.9,14.8,14.8,14.8z"/>
		<path d="M32.3,16.6c3.7,0,4.6-3,4.6-4.9c0-2-1.2-4.7-4.6-4.7H32c-3.3,0-4.6,2.7-4.6,4.7c0,1.9,0.9,4.9,4.6,4.9H32.3z M32.2,14.8
			c-1.2,0-2.1-1.1-2.1-2.9c0-1.8,0.9-2.9,2.1-2.9c1.2,0,2.1,1.1,2.1,2.9C34.3,13.7,33.3,14.8,32.2,14.8z"/>
	</g>
</g>
</svg>
