<?xml version="1.0" encoding="utf-8"?>
<!-- Generator: Adobe Illustrator 18.1.1, SVG Export Plug-In . SVG Version: 6.00 Build 0)  -->
<svg version="1.1" id="Layer_1" xmlns="http://www.w3.org/2000/svg" xmlns:xlink="http://www.w3.org/1999/xlink" x="0px" y="0px"
	 viewBox="0 0 690 92.8" enable-background="new 0 0 690 92.8" xml:space="preserve">
<g>
	<g>
		<path fill="#211F1F" d="M203.6,92.6l-6.4-8.4v8.4h-2.9V79.3h2.7l6.2,8.2v-8.2h2.9v13.3H203.6z"/>
		<path fill="#211F1F" d="M213.8,92.6V79.3h10v2.6h-7.1v2.7h6.3v2.6h-6.3V90h7.2v2.6H213.8z"/>
		<path fill="#211F1F" d="M231.2,92.6V79.3h2.9v13.3H231.2z"/>
		<path fill="#211F1F" d="M248.3,92.8c-4.1,0-7-2.9-7-6.8v0c0-3.8,2.9-6.9,7-6.9c2.4,0,3.8,0.6,5.2,1.8l-1.8,2.2
			c-1-0.9-1.9-1.3-3.5-1.3c-2.1,0-3.8,1.9-3.8,4.1v0c0,2.4,1.7,4.2,4,4.2c1.1,0,2-0.3,2.7-0.8v-1.9h-2.9V85h5.8v5.8
			C252.6,91.9,250.8,92.8,248.3,92.8z"/>
		<path fill="#211F1F" d="M269.6,92.6v-5.3h-5.4v5.3h-2.9V79.3h2.9v5.2h5.4v-5.2h2.9v13.3H269.6z"/>
		<path fill="#211F1F" d="M286.6,92.6h-6.3V79.3h6.2c2.7,0,4.4,1.3,4.4,3.4v0c0,1.5-0.8,2.3-1.7,2.9c1.5,0.6,2.5,1.5,2.5,3.3v0
			C291.6,91.4,289.6,92.6,286.6,92.6z M287.9,83.3c0-0.9-0.7-1.4-1.9-1.4h-2.9v2.8h2.7C287.1,84.7,287.9,84.3,287.9,83.3L287.9,83.3
			z M288.7,88.6c0-0.9-0.7-1.4-2.2-1.4h-3.4V90h3.5C287.9,90,288.7,89.6,288.7,88.6L288.7,88.6z"/>
		<path fill="#211F1F" d="M305,92.8c-4.1,0-7-3-7-6.8v0c0-3.8,3-6.9,7.1-6.9c4.1,0,7,3,7,6.8v0C312,89.7,309.1,92.8,305,92.8z
			 M309,86c0-2.3-1.7-4.2-4-4.2s-4,1.9-4,4.1v0c0,2.3,1.7,4.2,4,4.2C307.4,90.1,309,88.3,309,86L309,86z"/>
		<path fill="#211F1F" d="M327.2,92.6l-2.8-4.2h-2.3v4.2h-2.9V79.3h6.1c3.1,0,5,1.6,5,4.4v0c0,2.1-1.2,3.5-2.8,4.1l3.2,4.7H327.2z
			 M327.3,83.9c0-1.3-0.9-1.9-2.3-1.9h-2.9v3.8h3C326.5,85.8,327.3,85,327.3,83.9L327.3,83.9z"/>
		<path fill="#211F1F" d="M345.7,92.6v-5.3h-5.4v5.3h-2.9V79.3h2.9v5.2h5.4v-5.2h2.9v13.3H345.7z"/>
		<path fill="#211F1F" d="M362.8,92.8c-4.1,0-7-3-7-6.8v0c0-3.8,3-6.9,7.1-6.9s7,3,7,6.8v0C369.9,89.7,366.9,92.8,362.8,92.8z
			 M366.8,86c0-2.3-1.7-4.2-4-4.2c-2.3,0-4,1.9-4,4.1v0c0,2.3,1.7,4.2,4,4.2S366.8,88.3,366.8,86L366.8,86z"/>
		<path fill="#211F1F" d="M383.5,92.8c-4.1,0-7-3-7-6.8v0c0-3.8,3-6.9,7.1-6.9c4.1,0,7,3,7,6.8v0C390.5,89.7,387.6,92.8,383.5,92.8z
			 M387.5,86c0-2.3-1.7-4.2-4-4.2s-4,1.9-4,4.1v0c0,2.3,1.7,4.2,4,4.2C385.9,90.1,387.5,88.3,387.5,86L387.5,86z"/>
		<path fill="#211F1F" d="M402.9,92.6h-5.2V79.3h5.2c4.2,0,7,2.9,7,6.6v0C409.9,89.7,407,92.6,402.9,92.6z M406.9,86
			c0-2.3-1.6-4-4-4h-2.3v8h2.3C405.2,90,406.9,88.3,406.9,86L406.9,86z"/>
		<path fill="#211F1F" d="M433.5,92.8c-3.9,0-6.8-3-6.8-6.8v0c0-3.8,2.8-6.9,6.9-6.9c2.5,0,4,0.8,5.2,2l-1.9,2.1
			c-1-0.9-2.1-1.5-3.4-1.5c-2.2,0-3.8,1.9-3.8,4.1v0c0,2.3,1.6,4.2,3.8,4.2c1.5,0,2.4-0.6,3.5-1.6l1.9,1.9
			C437.6,91.9,436.1,92.8,433.5,92.8z"/>
		<path fill="#211F1F" d="M455.7,92.6l-1.2-3h-5.6l-1.2,3h-3l5.7-13.4h2.7l5.7,13.4H455.7z M451.7,82.7l-1.8,4.3h3.5L451.7,82.7z"/>
		<path fill="#211F1F" d="M468.3,82v2.8h6.3v2.7h-6.3v5.1h-2.9V79.3h10.1V82H468.3z"/>
		<path fill="#211F1F" d="M482.3,92.6V79.3h10v2.6h-7.1v2.7h6.3v2.6h-6.3V90h7.2v2.6H482.3z"/>
	</g>
	<path d="M164.4,86.9v-1.3c0-0.3-0.2-0.5-0.5-0.5H0.9c-0.3,0-0.5,0.2-0.5,0.5v1.3c0,0.3,0.2,0.5,0.5,0.5h163
		C164.2,87.5,164.4,87.2,164.4,86.9z"/>
	<path d="M687.7,86.9v-1.3c0-0.3-0.2-0.5-0.5-0.5H522.9c-0.3,0-0.5,0.2-0.5,0.5v1.3c0,0.3,0.2,0.5,0.5,0.5h164.4
		C687.5,87.5,687.7,87.2,687.7,86.9z"/>
	<path d="M113.1,2.6V1.3c0-0.3-0.2-0.5-0.5-0.5H0.9C0.6,0.7,0.4,1,0.4,1.3v1.3c0,0.3,0.2,0.5,0.5,0.5h111.6
		C112.8,3.1,113.1,2.9,113.1,2.6z"/>
	<path d="M113.1,54.9v-1.3c0-0.3-0.2-0.5-0.5-0.5H0.9c-0.3,0-0.5,0.2-0.5,0.5v1.3c0,0.3,0.2,0.5,0.5,0.5h111.6
		C112.8,55.4,113.1,55.1,113.1,54.9z"/>
	<path d="M328.9,0.4h-6.2l0,0h-33.7l0,0h-3.4c-0.6,0-1.1,0.4-1.4,0.9C284,1.9,284,2.7,284.5,3c1.6,1.1,1.5,3.3,1.5,3.3l0,21.6
		l0,21.5c0,0,0.1,2.2-1.5,3.3c-0.5,0.3-0.6,1.1-0.3,1.6c0.2,0.6,0.8,0.9,1.4,0.9h3.4h33.7h0c0,0,0,0,0,0h6.2c0.8,0,1.5-0.7,1.5-1.5
		v-0.1v-3.8v-7.2c0-0.5-0.2-0.9-0.6-1.2c-0.4-0.3-0.9-0.4-1.3-0.2c-0.6,0.2-1,0.7-1.4,1.1c-0.5,0.6-1.2,1.4-2.7,1.5l-24.5,0v-10
		l13.7,0l0.1,0c0.8,0,1.7,0.2,2.1,1.2c0.3,0.6,0.9,1,1.7,0.9c0.7-0.1,1.2-0.8,1.2-1.5V21.3c0-0.7-0.5-1.3-1.2-1.5
		c-0.7-0.1-1.4,0.3-1.7,0.9c-0.4,1-1.3,1.1-2.1,1.2l-0.2,0c0,0-0.1,0-0.1,0h-13.6V11.9l24.5,0c1.6,0.1,2.2,0.9,2.7,1.5
		c0.4,0.4,0.7,0.9,1.4,1.1c0.4,0.1,0.9,0.1,1.3-0.2c0.4-0.3,0.6-0.7,0.6-1.2V5.9V2V1.9C330.4,1.1,329.7,0.4,328.9,0.4z"/>
	<path d="M187.2,39c0.2,2.1,0.1,5.3-1.5,8.3l0,0c-0.4,0.8-3.9,8.1-16.4,8.4H169c0,0,0,0,0,0c-1.9,0-11.9-0.3-18.6-5.9
		c-0.3-0.3-8.5-6.7-8.6-17.1c0-0.2-0.3-6.5,0.4-10.9c0.2-1.6,2.3-15.5,15.7-20.1c0.5-0.2,4.8-1.7,11.6-1.7c1.1,0,2.1,0,3.2,0.1
		c0.9,0.1,5.4,0.6,9.2,0.6c1.4,0,2.5-0.1,3.3-0.2c0.4-0.1,0.9,0,1.2,0.3c0.3,0.3,0.5,0.7,0.5,1.1v13.5c0,0.6-0.4,1.2-1,1.4
		c-0.6,0.2-1.3,0-1.6-0.5c-1.7-2.2-5.8-5.8-13.6-5.8h-0.2c-0.4,0-10.1,0.2-12.4,9.9l0,0.1c-0.3,1.9-2.9,18.9,5.1,22.8l0.1,0
		c0,0,0,0,0,0c0.1,0.1,2.6,1.5,7.5,1.5c0.2,0,0.4,0,0.6,0c0,0,0,0,0.1,0c0,0,0,0,0,0h0.1l0.2,0c1.5,0,9.1-0.3,12.7-6.5
		c0.3-0.5,1-0.8,1.6-0.7C186.7,37.8,187.2,38.3,187.2,39z"/>
	<path fill="#FFFFFF" d="M169.8,3.2c-6.1,0-10.1,1.4-10.5,1.5c-11.6,4-13.5,16.3-13.7,17.7c-0.6,4-0.3,9.9-0.3,10.1l0,0.1
		c0.1,9,7.4,14.7,7.5,14.8c6,5,15.4,5.1,16.5,5.1h0c0,0,0,0,0,0h0.3c0.5,0,1,0,1.5-0.1c-0.1-0.1-0.6-1.3-2.4-1.5
		c-2.3-0.1-10-0.6-15-4.8l-0.1-0.1c-0.1-0.1-6.7-5.4-6.8-13.6l0-0.1c0-0.2-0.3-5.9,0.3-9.8c0.2-1.3,1.9-12.7,12.7-16.4
		c0.4-0.1,4.1-1.4,10-1.4c0.5,0,1,0,1.6,0c2.9,0,3-1.3,3-1.3c-0.8-0.1-1.4-0.1-1.7-0.2C171.7,3.2,170.8,3.2,169.8,3.2z"/>
	<path fill="#FFFFFF" d="M289.8,4v47.4c0.3-0.1,1.4-0.4,1.4-2.2V6.2c0,0,0-1.3-0.6-2C290.4,4,290.1,3.9,289.8,4z"/>
	<path fill="#FFFFFF" d="M323.4,47.1h-21.6c-1.7,0-1.9,1.1-1.9,1.3h26.4C326.2,48.2,325.9,47.1,323.4,47.1z"/>
	<path fill="#FFFFFF" d="M323.4,4h-21.6c-1.7,0-1.9,1.1-1.9,1.3h26.4C326.2,5.1,325.9,4,323.4,4z"/>
	<path fill="#FFFFFF" d="M301.8,26.7h9.3c2.5,0,2.8-1.1,2.9-1.4h-14.1C299.9,25.6,300.1,26.7,301.8,26.7z"/>
	<path d="M404.3,52.6c-3.4-2.8-7-12.9-7-13l-12-31.7c-1.2-3.4,0.4-4.5,0.5-4.7l0,0c0.6-0.3,0.9-1,0.7-1.7c-0.2-0.6-0.8-1.1-1.4-1.1
		h-16.4c-0.7,0-1.3,0.4-1.5,1.1c-0.2,0.7,0.1,1.3,0.7,1.6l0,0c0.2,0.1,1.8,1.3,0.6,4.7l-12.1,31.8c0,0.1-3.6,10.1-7,12.9
		c-0.5,0.4-0.7,1.1-0.4,1.7c0.2,0.6,0.8,1,1.4,1H367c0.8,0,1.5-0.7,1.5-1.5c0-0.7-0.5-1.3-1.1-1.4l-0.1,0c-0.4-0.2-1.2-0.7-0.5-2.9
		l2.8-6.8h15.7l2.8,6.7l0,0c0.8,2.2-0.1,2.7-0.5,2.9l-0.1,0c-0.7,0.2-1.2,0.8-1.1,1.6c0.1,0.8,0.7,1.4,1.5,1.4h15.5
		c0.6,0,1.2-0.4,1.4-1C405,53.7,404.8,53,404.3,52.6z M372.7,31.9l4.2-10.7l4.2,10.7H372.7z"/>
	<path fill="#FFFFFF" d="M380.7,35.2h-7.6c-1.7,0-1.9,1.1-1.9,1.4h11.4C382.6,36.3,382.4,35.2,380.7,35.2z"/>
	<path fill="#FFFFFF" d="M374,5.8c-0.1-0.3-0.3-0.4-0.6-0.5l-17.2,46.2c0,0,0.1,0,0.2,0c0.4,0,1.4-0.2,1.9-1.5l15.7-42
		C374,7.5,374.3,6.4,374,5.8z"/>
	<path fill="#FFFFFF" d="M378.9,16.3l13.5,33.3c0.5,1.2,1.2,1.5,1.7,1.6h0.6l-15.6-38.5C378.1,14.3,378.9,16.3,378.9,16.3z"/>
	<path d="M263.1,52.3c0,0-3.2-1-4.5-3.5l-5.2-10.7l-1.4-3.3l0.2-0.1c2.5-1.8,4.3-3.8,5.4-6.1c4.6-9.9,0.9-18.2-1-20.5l0-0.1
		c0,0,0-0.1-0.1-0.1l-0.1-0.1c-5.2-7-14.2-7.3-16-7.3c-0.2,0-0.4,0-0.5,0h-26.8c-0.6,0-1.1,0.4-1.4,0.9c-0.2,0.6-0.2,1.3,0.3,1.6
		c1.6,1.1,1.5,3.3,1.5,3.3l0,41.9c0,0.9-0.1,3.4-1.9,4.1c-0.7,0.3-1.1,0.9-1,1.6c0.1,0.7,0.7,1.2,1.5,1.2l16.6,0
		c0.7,0,1.3-0.5,1.5-1.2c0.1-0.7-0.3-1.4-1-1.6c-1.6-0.6-1.8-3.1-1.9-4l0-9.8H239l5.7,12.4c0,0,0.5,1.1-0.3,1.4
		c-0.7,0.3-1.2,0.9-1.2,1.6c0.1,0.8,0.7,1.3,1.5,1.3h18.1c0.8,0,1.4-0.6,1.5-1.4C264.4,53.1,263.9,52.4,263.1,52.3z M246.4,20
		c0,3.8-3.1,6.9-6.9,6.9h-12V11.9h12c3.8,0,6.9,3.1,6.9,6.9V20z"/>
	<path fill="#FFFFFF" d="M217.3,4v47.4c0.3-0.1,1.4-0.4,1.4-2.2v-43c0-0.4-0.1-1.4-0.6-2C217.9,4.1,217.6,4,217.3,4z"/>
	<path fill="#FFFFFF" d="M240.2,8.1c0-0.2-0.2-1.4-1.9-1.4h-4.5h-4.5c-1.7,0-1.9,1.1-1.9,1.4h6.3H240.2z"/>
	<path fill="#FFFFFF" d="M247.6,12c1.6,1.8,2.6,4.2,2.6,6.8v1.3c0,5.6-4.6,10.2-10.2,10.2h-9.6c-2.6,0-2.8,1.6-2.8,1.6h12.4
		c6.5,0,11.8-5.3,11.8-11.8v-1.3c0-2.1-0.5-4-1.5-5.7C249.4,11.7,247.9,11.9,247.6,12z"/>
	<path fill="#FFFFFF" d="M242.6,38.4l5.4,11.8l0,0c0.7,1.4,2,1.2,2,1.2l0.1,0l-5.3-11.5C244.1,38.3,242.6,38.4,242.6,38.4z"/>
	<path d="M550.1,0.4h-6.2l0,0h-33.7l0,0h-3.4c-0.6,0-1.1,0.4-1.4,0.9c-0.2,0.6-0.2,1.3,0.3,1.6c1.6,1.1,1.5,3.3,1.5,3.3v21.6v21.5
		c0,0,0.1,2.2-1.5,3.3c-0.5,0.3-0.6,1.1-0.3,1.6c0.2,0.6,0.8,0.9,1.4,0.9h3.4h33.7h0c0,0,0,0,0,0h6.2c0.8,0,1.5-0.7,1.5-1.5v-0.1
		v-3.8v-7.2c0-0.5-0.2-0.9-0.6-1.2c-0.4-0.3-0.9-0.4-1.3-0.2c-0.6,0.2-1,0.7-1.4,1.1c-0.5,0.6-1.2,1.4-2.7,1.5l-24.5,0v-10l13.7,0
		l0.1,0c0.8,0,1.6,0.2,2.1,1.2c0.3,0.6,0.9,1,1.7,0.9c0.7-0.1,1.2-0.8,1.2-1.5V21.3c0-0.7-0.5-1.3-1.2-1.5c-0.7-0.1-1.4,0.3-1.7,0.9
		c-0.4,1-1.3,1.1-2.1,1.2l-0.2,0c0,0-0.1,0-0.1,0H521V11.9l24.5,0c1.6,0.1,2.2,0.9,2.7,1.5c0.4,0.4,0.7,0.9,1.4,1.1
		c0.4,0.1,0.9,0.1,1.3-0.2c0.4-0.3,0.6-0.7,0.6-1.2V5.9V2V1.9C551.5,1.1,550.9,0.4,550.1,0.4z"/>
	<path fill="#FFFFFF" d="M510.9,4v47.4c0.3-0.1,1.4-0.4,1.4-2.2V6.2c0,0,0-1.3-0.6-2C511.5,4,511.2,3.9,510.9,4z"/>
	<path fill="#FFFFFF" d="M544.6,47.1h-21.6c-1.7,0-1.9,1.1-1.9,1.3h26.4C547.4,48.2,547.1,47.1,544.6,47.1z"/>
	<path fill="#FFFFFF" d="M544.6,4h-21.6c-1.7,0-1.9,1.1-1.9,1.3h26.4C547.4,5.1,547.1,4,544.6,4z"/>
	<path fill="#FFFFFF" d="M522.9,26.7h9.3c2.5,0,2.8-1.1,2.9-1.4H521C521.1,25.6,521.3,26.7,522.9,26.7z"/>
	<path d="M625.4,52.3c0,0-3.2-1-4.5-3.5l-5.2-10.7l-1.4-3.3l0.2-0.1c2.5-1.8,4.3-3.8,5.4-6.1c4.6-9.9,0.9-18.2-1-20.5l0-0.1
		c0,0,0-0.1-0.1-0.1l-0.1-0.1c-5.2-7-14.2-7.3-16-7.3c-0.2,0-0.4,0-0.5,0h-26.8c-0.6,0-1.1,0.4-1.4,0.9C574,1.9,574,2.7,574.5,3
		c1.6,1.1,1.5,3.3,1.5,3.3l0,41.9c0,0.9-0.1,3.4-1.9,4.1c-0.7,0.3-1.1,0.9-1,1.6c0.1,0.7,0.7,1.2,1.5,1.2l16.6,0
		c0.7,0,1.3-0.5,1.5-1.2c0.1-0.7-0.3-1.4-1-1.6c-1.6-0.6-1.8-3.1-1.9-4l0-9.8h11.4l5.7,12.4c0,0,0.5,1.1-0.3,1.4
		c-0.7,0.3-1.2,0.9-1.2,1.6c0.1,0.8,0.7,1.3,1.5,1.3h18.1c0.8,0,1.4-0.6,1.5-1.4C626.6,53.1,626.1,52.4,625.4,52.3z M608.7,20
		c0,3.8-3.1,6.9-6.9,6.9h-12V11.9h12c3.8,0,6.9,3.1,6.9,6.9V20z"/>
	<path fill="#FFFFFF" d="M579.5,4v47.4c0.3-0.1,1.4-0.4,1.4-2.2v-43c0-0.4-0.1-1.4-0.6-2C580.1,4.1,579.8,4,579.5,4z"/>
	<path fill="#FFFFFF" d="M602.4,8.1c0-0.2-0.2-1.4-1.9-1.4h-4.5h-4.5c-1.7,0-1.9,1.1-1.9,1.4h6.3H602.4z"/>
	<path fill="#FFFFFF" d="M609.8,12c1.6,1.8,2.6,4.2,2.6,6.8v1.3c0,5.6-4.6,10.2-10.2,10.2h-9.6c-2.6,0-2.8,1.6-2.8,1.6h12.4
		c6.5,0,11.8-5.3,11.8-11.8v-1.3c0-2.1-0.5-4-1.5-5.7C611.6,11.7,610.1,11.9,609.8,12z"/>
	<path fill="#FFFFFF" d="M604.9,38.4l5.4,11.8l0,0c0.7,1.4,2,1.2,2,1.2l0.1,0l-5.3-11.5C606.3,38.3,604.9,38.4,604.9,38.4z"/>
	<path d="M689.5,3c-3.5,2.9-9.7,12.8-9.7,12.9l-9.4,14.4l0,17.9c0,0.9,0.4,3.6,1.9,4c0.7,0.2,1.1,0.9,1,1.6
		c-0.1,0.7-0.7,1.2-1.5,1.2h-8.5h-8.1c-0.7,0-1.3-0.5-1.5-1.2c-0.1-0.7,0.3-1.4,1-1.6c1.4-0.5,1.8-3.1,1.9-4l0-17.9l-9.8-14.4
		c-0.1-0.1-5.8-10-9.3-12.9c-0.5-0.4-0.7-1-0.5-1.6c0.2-0.6,0.8-1,1.4-1h16.2c0.7,0,1.3,0.5,1.4,1.1c0.2,0.7-0.2,1.3-0.8,1.7
		c-0.5,0.3-1.6,1-1,2.7l0,0l9,13.6l9-13.6l0,0c0.6-1.7-0.5-2.5-1-2.7c-0.6-0.3-0.9-1-0.8-1.7c0.2-0.7,0.7-1.1,1.4-1.1h16.6
		c0.6,0,1.2,0.4,1.4,1C690.1,2,689.9,2.6,689.5,3z"/>
	<path fill="#FFFFFF" d="M644.4,4.3h-0.6l16.8,25.4v21.7c0.3-0.1,1.4-0.6,1.4-2.3V29L646.3,5.3C645.8,4.6,645,4.4,644.4,4.3z"/>
	<path fill="#FFFFFF" d="M677,5.3l-10.7,16.2c-0.9,1.3-0.2,2.5-0.1,2.8l0,0l13.2-19.9C677.9,4.4,677.2,5,677,5.3z"/>
	<path d="M426.1,6.2c0-2-1.5-3.2-1.5-3.2c-0.4-0.4-0.6-1.1-0.3-1.6c0.2-0.6,0.8-0.9,1.4-0.9h12.8c0.1,0,0.2,0,0.3,0l0.1,0
		c0.1,0,0.1,0,0.2,0.1l0,0c0,0,0,0,0,0c0,0,0.1,0,0.1,0.1l0,0c0,0,0,0,0.1,0c0.1,0,0.1,0.1,0.2,0.1c0,0,0.1,0.1,0.1,0.1l13.9,20.7
		l13.4-20.1c0.5-0.9,1.2-1.1,1.8-1.1H481c0.6,0,1.1,0.4,1.4,0.9c0.2,0.6,0.1,1.2-0.3,1.6c-1.6,1.6-1.5,3-1.5,3.1c0,0,0,0,0,0.1
		l0,42.2c0,0.9,0.4,3.6,1.9,4c0.7,0.2,1.1,0.9,1,1.6c-0.1,0.7-0.7,1.2-1.5,1.2h-16.6c-0.7,0-1.3-0.5-1.5-1.2c-0.1-0.7,0.3-1.4,1-1.6
		c1.4-0.5,1.8-3.2,1.9-4.1l0-23.5l-12.1,17.7c0,0,0,0,0,0l-0.1,0.1c0,0.1-0.1,0.1-0.2,0.2c0,0,0,0,0,0c-0.1,0.1-0.1,0.1-0.2,0.1
		c0,0-0.1,0.1-0.1,0.1l-0.2,0.1c0,0-0.1,0-0.1,0c-0.1,0-0.2,0-0.3,0s-0.2,0-0.3-0.1c0,0-0.1,0-0.1,0l-0.1-0.1c0,0-0.1,0-0.1,0
		c-0.1,0-0.2-0.1-0.2-0.1c0,0-0.1,0-0.1-0.1l0,0c0,0-0.1-0.1-0.2-0.2l-12.3-18l0,23.7c0,0.9,0.4,3.6,1.9,4c0.7,0.2,1.1,0.9,1,1.6
		c-0.1,0.7-0.7,1.2-1.5,1.2l-16.6,0c-0.7,0-1.3-0.5-1.5-1.2c-0.1-0.7,0.3-1.4,1-1.6c1.5-0.5,1.8-3.1,1.9-4.1V6.2"/>
	<path fill="#FFFFFF" d="M471.8,19.2C471.8,19.2,471.9,19.2,471.8,19.2l0.1,32.2c-0.3-0.1-1.4-0.5-1.4-2.2V21.5c0,0,0-1.3,0.6-2
		C471.3,19.3,471.5,19.2,471.8,19.2z"/>
	<path fill="#FFFFFF" d="M429.5,3.9v47.5c0.3-0.1,1.4-0.4,1.4-2.2v-43c0-0.4-0.1-1.4-0.6-2C430.1,4,429.8,3.9,429.5,3.9z"/>
	<path fill="#FFFFFF" d="M439.8,15.6c0,0-0.9,1.2,0.7,3.6l0,0L453.3,38c0.2-0.2,0.9-1.2,0-2.6L439.8,15.6z"/>
	<path fill="#FFFFFF" d="M471.3,4.5c-0.2-0.2-0.5-0.2-0.8-0.1c-0.8,0.2-1.6,1.3-1.6,1.3l-12.7,19.2c-0.9,1.4-0.2,2.4,0,2.6
		L471.3,4.5C471.4,4.5,471.3,4.5,471.3,4.5z"/>
	<g>
		<path d="M60.2,29.4V28c0-0.3-0.3-0.6-0.6-0.6h-8.1c-0.3,0-0.6,0.3-0.6,0.6v1.4c0,0.3,0.3,0.6,0.6,0.6h8.1
			C59.9,29.9,60.2,29.7,60.2,29.4z"/>
		<path d="M18.6,32.6c0.1,0.9,0,2.2-0.6,3.4l0,0c-0.1,0.3-1.6,3.3-6.7,3.4h-0.1h0c-0.8,0-4.9-0.1-7.6-2.4c-0.1-0.1-3.5-2.7-3.5-7
			c0-0.1-0.1-2.7,0.1-4.5c0.1-0.6,1-6.3,6.4-8.2c0.2-0.1,2-0.7,4.7-0.7c0.4,0,0.9,0,1.3,0c0.4,0,2.2,0.2,3.7,0.2c0.6,0,1,0,1.4-0.1
			c0.2,0,0.4,0,0.5,0.1c0.1,0.1,0.2,0.3,0.2,0.5V23c0,0.3-0.2,0.5-0.4,0.6c-0.2,0.1-0.5,0-0.7-0.2C16.7,22.5,15,21,11.8,21h-0.1
			c-0.2,0-4.1,0.1-5.1,4l0,0c-0.1,0.8-1.2,7.7,2.1,9.3l0,0c0,0,0,0,0,0c0,0,1.1,0.6,3.1,0.6c0.1,0,0.2,0,0.3,0c0,0,0,0,0,0
			c0,0,0,0,0,0h0h0.1c0.6,0,3.7-0.1,5.2-2.7c0.1-0.2,0.4-0.3,0.7-0.3C18.4,32.1,18.6,32.3,18.6,32.6z"/>
		<g>
			<path d="M111.7,19.9L111.7,19.9C111.6,19.9,111.6,19.9,111.7,19.9L111.7,19.9c-2.2-2.9-5.9-3.1-6.6-3.1c-0.1,0-0.2,0-0.2,0h-5.1
				h0h-5.8c-0.2,0-0.5,0.2-0.6,0.4c-0.1,0.2-0.1,0.5,0.1,0.7c0.6,0.4,0.6,1.4,0.6,1.4l0,17.2c0,0.4-0.1,1.4-0.8,1.7
				c-0.3,0.1-0.5,0.4-0.4,0.7c0,0.3,0.3,0.5,0.6,0.5h6.8c0.3,0,0.5-0.2,0.6-0.5c0-0.3-0.1-0.6-0.4-0.7c-0.7-0.3-0.8-1.3-0.8-1.7v-4
				l0,0v-0.1h5.1c0,0,0.1,0,0.2,0c0.7,0,4.4-0.1,6.5-3l0,0c0,0,0,0,0,0l0,0c0.5-0.6,1.4-2.4,1.3-4.7C113,22.3,112.2,20.6,111.7,19.9
				z M107.4,24.6v0.3c0,1.6-1.3,2.8-2.8,2.8h-4.9v-6.2h4.9c1.6,0,2.8,1.3,2.8,2.8V24.6z"/>
		</g>
		<path d="M35.4,39.4c8.7,0,10.8-7.2,10.8-11.6c0-4.7-2.9-11.1-10.8-11.1h-0.7c-7.9,0-10.8,6.4-10.8,11.1c0,4.5,2.2,11.6,10.8,11.6
			H35.4z M35,35c-2.8,0-5-2.6-5-7c0-4.3,2.2-7,5-7c2.8,0,5,2.6,5,7C40,32.4,37.8,35,35,35z"/>
		<path d="M76.6,39.4c8.7,0,10.8-7.2,10.8-11.6c0-4.7-2.9-11.1-10.8-11.1h-0.7c-7.9,0-10.8,6.4-10.8,11.1c0,4.5,2.2,11.6,10.8,11.6
			H76.6z M76.2,35c-2.8,0-5-2.6-5-7c0-4.3,2.2-7,5-7c2.8,0,5,2.6,5,7C81.2,32.4,79,35,76.2,35z"/>
	</g>
</g>
</svg>
