<?xml version="1.0" encoding="utf-8"?>
<!-- Generator: Adobe Illustrator 18.1.1, SVG Export Plug-In . SVG Version: 6.00 Build 0)  -->
<svg version="1.1" id="Layer_1" xmlns="http://www.w3.org/2000/svg" xmlns:xlink="http://www.w3.org/1999/xlink" x="0px" y="0px"
	 viewBox="0 0 107 29" enable-background="new 0 0 107 29" xml:space="preserve">
<g>
	<path fill="#FFFFFF" d="M85.5,7l0.1-0.4c0-0.2-0.1-0.3-0.3-0.4c-0.2-0.2-0.4-0.4-0.6-0.6c-0.6-0.6-1.1-1.6-1.1-2.4
		c0-0.9,0.2-1.6,0.7-2.4c0.1-0.1,0.2-0.4,0.3-0.5c0.1-0.1,0.1-0.1,0.2-0.1c0.1,0,0.2,0.2,0.2,0.2L85.3,1c0.3,0.5,0.7,1.3,0.7,1.9
		l-0.2,1.3c0,0.2-0.1,0.7-0.1,0.8c0,0.1,0.1,0.3,0.2,0.2c0.1,0,0.3-0.3,0.4-0.4c0.2-0.3,0.5-0.7,0.8-0.9c0.5-0.5,1.4-0.9,2-1.1
		c0.3-0.1,1-0.2,1.3-0.4c0.1-0.1,0.1-0.2,0.2-0.4c0-0.2,0.1-0.4,0.2-0.5c0.4-0.7,1.1-1.2,1.9-1.2c0.5,0,1,0.1,1.5,0.4
		c1.2,0.8,1.4,2.5,0.3,3.6c-0.2,0.2-0.5,0.4-0.8,0.5C92.9,5.2,92,5,91.3,4.4c-0.2-0.1-0.3-0.3-0.5-0.5c-0.2-0.4-0.2-0.6-0.7-0.5
		c-0.3,0.1-0.6,0.2-0.8,0.4c-0.6,0.4-1.2,0.8-1.6,1.4c-0.2,0.3-0.4,0.7-0.5,1c-0.1,0.4-0.2,0.9-0.2,1.3l0,0.3c0.1,0.8,0.3,1.4,0.8,2
		c0.6,0.8,1.5,1.3,2.2,2c0.5,0.5,0.9,1,1.3,1.5c0.1,0.1,0.3,0.5,0.5,0.5c0.1,0,0.2-0.2,0.3-0.2l0.6-0.8c0.4-0.5,1.3-1.2,1.3-1.8
		c0-0.3-0.1-0.5-0.2-0.8c-0.1-0.1-0.2-0.3-0.3-0.4c-0.3-0.2-0.3,0-0.7,0.3c-0.5,0.4-0.9,0.4-1.5,0.4c-0.3,0-0.5-0.1-0.8-0.2
		c-0.2-0.1-0.4-0.3-0.6-0.4c-1.3-1.2-0.8-3.4,0.8-3.9c0.2-0.1,0.6-0.2,0.8-0.1c1,0.1,1.9,0.7,2.2,1.7c0.1,0.2,0.1,0.5,0.1,0.7
		c0,0.2,0,0.3,0,0.4c0.1,0.1,0.3,0.3,0.4,0.4c0.2,0.2,0.3,0.3,0.5,0.5c0.3,0.4,0.3,0.6,0.5,1c0,0.1,0.1,0.3,0.3,0.3
		c0.2,0,0.4-0.4,0.5-0.5C96,9.6,96,9.1,96,8.6l0-0.5l0-0.4V7.3l0.1-0.8c0.2-1.3,0.6-2.8,1.5-3.8c0.9-1,2.1-1.7,3.4-2.1
		c0.4-0.2,1.4-0.5,1.9-0.5c-0.3,0.6-0.5,1.2-0.5,1.9c0,1,0,1.9-0.6,2.8c-0.9,1.2-2.8,1.2-3.8,2.2c-0.4,0.4-0.7,1.2-0.8,1.7
		c0,0.1-0.1,0.6,0.1,0.6c0.1,0,0.2-0.1,0.2-0.1L98,8.8c0.6-0.5,1.2-0.9,1.9-1.3c1.7-1,3.4-1.3,5.3-0.9c0.5,0.1,1.4,0.4,1.8,0.7
		L106.3,8c-0.3,0.3-0.7,0.5-1,0.7c-1,0.5-2.3,0.7-3.4,0.7l-1.2-0.1l-0.8,0c-0.6,0-1.3,0.1-1.8,0.4c-0.2,0.1-0.5,0.3-0.5,0.6l0.8-0.1
		c1,0,1.6,0,2.6,0.3c0.3,0.1,0.9,0.3,1.1,0.5c0.1,0.1,0.5,0.4,0.6,0.4l0.7-0.1c0.4,0,0.5,0,0.8,0.1c0.9,0.3,1.6,1.2,1.6,2.1v0.3
		c0,0.9-0.7,1.8-1.6,2.1c-1.4,0.5-3.1-0.6-3.1-2.1c0-0.4,0-0.7,0.2-1.1c0.1-0.3,0.3-0.4,0.2-0.6c-0.2-0.4-1-0.6-1.4-0.8
		c-0.6-0.2-0.9-0.2-1.5-0.2c-1.2,0-2.3,0.6-3.1,1.6c-0.9,1.1-1.1,2.5-1.3,3.8c-0.2,1.9,0,3.7,0.2,5.6c0.1,0.9,0.5,2.5,0.9,3.3
		c0.5,0.9,1,1.5,1.7,2.2l0.9,0.8c-0.4,0.2-1.1,0.5-1.5,0.5H96c-0.5,0-1.6-0.3-2-0.5c-0.7-0.3-1.5-0.8-2.3-0.8
		c-1.1,0-2.1,0.7-3.4,0.9c-0.2,0-0.2,0-0.4,0c-0.4,0-0.9-0.1-1.1-0.5c0.4-0.2,0.5-0.2,0.9-0.5c0.3-0.2,0.7-0.6,1-0.9
		c1.4-1.6,1.8-3.8,2-5.8l0.1-1.1v-0.3l0-0.5c0-0.7-0.1-1.5-0.2-2.2c-0.3-1.4-1-2.6-2.2-3.5c-0.4-0.2-0.7-0.4-1.1-0.6
		c-0.4-0.1-0.7-0.1-1.1-0.1c-0.7,0-1.8,0.4-2.4,0.7c-0.1,0.1-0.6,0.3-0.7,0.5c0,0.1,0.1,0.3,0.2,0.5c0.2,0.3,0.2,0.6,0.3,0.9
		c0.1,0.9-0.4,1.9-1.3,2.3c-0.3,0.2-0.7,0.3-1,0.3c-0.2,0-0.6-0.1-0.8-0.1c-1.6-0.5-2.1-2.5-1-3.8c0.4-0.4,0.9-0.7,1.4-0.8h0.5
		l0.7,0.1c0.1,0,0.6-0.4,0.7-0.5c0.4-0.3,0.8-0.5,1.3-0.8c0.8-0.4,1.5-0.5,2.4-0.5c0.3,0,0.5,0,0.7,0.1c-0.1-0.2-0.4-0.5-0.6-0.7
		l-0.5-0.8c-0.1-0.1-0.5-0.4-0.6-0.4c-0.5-0.3-1.3-0.7-2-0.7c-1,0-1.3,0.2-2.1,0.4c-0.7,0.2-1,0.1-1.6,0.1c-1.3,0-2.2-0.9-2.8-1.9
		l-0.6-1.3c0.3,0.1,0.4,0.2,0.9,0.2c0.9,0,1.2-0.3,2-0.5c0.6-0.2,0.8-0.2,1.4-0.2c1.3,0,2.8,0.9,3.8,1.7L85,8
		c0.2,0.2,0.3,0.3,0.5,0.4C85.4,7.9,85.4,7.5,85.5,7"/>
	<path fill="#FFFFFF" d="M0,17.3l1.6-2.2c0.9,1,2.4,1.8,4.3,1.8c1.6,0,2.3-0.7,2.3-1.5c0-2.3-7.7-0.7-7.7-5.7c0-2.2,1.9-4.1,5.1-4.1
		c2.1,0,3.9,0.6,5.2,1.9L9.2,9.6c-1.1-1-2.5-1.5-3.9-1.5c-1.2,0-1.9,0.5-1.9,1.3c0,2.1,7.7,0.7,7.7,5.7c0,2.5-1.8,4.3-5.4,4.3
		C3.1,19.4,1.3,18.6,0,17.3"/>
	<path fill="#FFFFFF" d="M17.6,11.2c-1.6,0-2.3,1.1-2.4,2.1H20C19.9,12.4,19.3,11.2,17.6,11.2 M12.5,14.2c0-2.9,2.1-5.2,5.1-5.2
		c3,0,4.9,2.2,4.9,5.4v0.6h-7.3c0.2,1.2,1.2,2.2,2.8,2.2c0.8,0,2-0.3,2.6-1l1.2,1.7c-1,0.9-2.5,1.4-4.1,1.4
		C14.7,19.4,12.5,17.4,12.5,14.2"/>
	<polygon fill="#FFFFFF" points="33.2,19.2 31.1,12.5 29.1,19.2 26.3,19.2 23.3,9.3 26,9.3 27.8,16 30,9.3 32.3,9.3 34.4,16 
		36.3,9.3 39,9.3 36,19.2 	"/>
	<path fill="#FFFFFF" d="M46.4,16.8v-1.2c-0.4-0.6-1.2-0.9-2.1-0.9c-1,0-1.9,0.6-1.9,1.5c0,0.9,0.8,1.5,1.9,1.5
		C45.1,17.7,45.9,17.4,46.4,16.8 M46.4,19.2v-1c-0.7,0.8-1.8,1.3-3.1,1.3c-1.6,0-3.4-1.1-3.4-3.3c0-2.3,1.8-3.2,3.4-3.2
		c1.3,0,2.5,0.4,3.1,1.2v-1.2c0-1-0.9-1.7-2.2-1.7c-1,0-2,0.4-2.8,1.2l-1-1.8c1.2-1.1,2.8-1.6,4.3-1.6c2.3,0,4.3,0.9,4.3,3.7v6.4
		H46.4z"/>
	<path fill="#FFFFFF" d="M51,19.2V9.3h2.6v1.3c0.7-0.9,1.9-1.6,3.1-1.6v2.5c-0.2,0-0.4-0.1-0.7-0.1c-0.9,0-2,0.5-2.4,1.1v6.5H51z"/>
	<path fill="#FFFFFF" d="M65.1,16v-3.5c-0.4-0.7-1.4-1.1-2.2-1.1c-1.5,0-2.5,1.2-2.5,2.9c0,1.7,1,2.9,2.5,2.9
		C63.7,17.1,64.7,16.6,65.1,16 M65.1,19.2v-1.3c-0.8,1-1.8,1.5-3,1.5c-2.5,0-4.4-1.9-4.4-5.2c0-3.2,1.9-5.2,4.4-5.2
		c1.2,0,2.3,0.5,3,1.5v-5h2.6v13.6H65.1z"/>
	<path fill="#FFFFFF" d="M0,26.1c0-1.4,1-2.3,2.4-2.3c0.9,0,1.5,0.5,1.8,1l-0.7,0.4c-0.2-0.4-0.7-0.7-1.1-0.7
		c-0.9,0-1.6,0.7-1.6,1.6c0,0.9,0.7,1.6,1.6,1.6c0.5,0,0.9-0.3,1.1-0.7l0.7,0.3c-0.3,0.5-0.9,1-1.8,1C1,28.4,0,27.5,0,26.1"/>
	<path fill="#FFFFFF" d="M8.7,26.1c0-0.9-0.6-1.6-1.5-1.6c-0.9,0-1.5,0.7-1.5,1.6c0,0.9,0.6,1.6,1.5,1.6C8.1,27.7,8.7,27,8.7,26.1
		 M4.9,26.1c0-1.3,1-2.3,2.3-2.3c1.3,0,2.3,1,2.3,2.3c0,1.3-1,2.3-2.3,2.3C5.9,28.4,4.9,27.4,4.9,26.1"/>
	<polygon fill="#FFFFFF" points="14.1,23.8 12.9,26.9 11.7,23.8 10.6,23.8 10.6,28.3 11.3,28.3 11.3,24.8 12.7,28.3 13.1,28.3 
		14.4,24.8 14.4,28.3 15.2,28.3 15.2,23.8 	"/>
	<polygon fill="#FFFFFF" points="20.2,23.8 19,26.9 17.7,23.8 16.6,23.8 16.6,28.3 17.4,28.3 17.4,24.8 18.8,28.3 19.1,28.3 
		20.5,24.8 20.5,28.3 21.3,28.3 21.3,23.8 	"/>
	<path fill="#FFFFFF" d="M22.6,26.5v-2.7h0.8v2.7c0,0.7,0.4,1.2,1.1,1.2s1.1-0.5,1.1-1.2v-2.7h0.8v2.7c0,1.1-0.6,1.9-2,1.9
		C23.2,28.4,22.6,27.7,22.6,26.5"/>
	<polygon fill="#FFFFFF" points="30.8,23.8 30.8,26.9 28.5,23.8 27.7,23.8 27.7,28.3 28.5,28.3 28.5,25.1 30.9,28.3 31.6,28.3 
		31.6,23.8 	"/>
	<rect x="32.9" y="23.8" fill="#FFFFFF" width="0.8" height="4.5"/>
	<polygon fill="#FFFFFF" points="34.6,23.8 34.6,24.5 36,24.5 36,28.3 36.8,28.3 36.8,24.5 38.1,24.5 38.1,23.8 	"/>
	<polygon fill="#FFFFFF" points="42.2,23.8 41,25.7 39.7,23.8 38.8,23.8 40.6,26.5 40.6,28.3 41.4,28.3 41.4,26.5 43.1,23.8 	"/>
	<path fill="#FFFFFF" d="M45.7,26.1c0-1.4,1-2.3,2.4-2.3c0.9,0,1.5,0.5,1.8,1l-0.7,0.4c-0.2-0.4-0.7-0.7-1.1-0.7
		c-0.9,0-1.6,0.7-1.6,1.6c0,0.9,0.7,1.6,1.6,1.6c0.5,0,0.9-0.3,1.1-0.7l0.7,0.3c-0.3,0.5-0.9,1-1.8,1C46.8,28.4,45.7,27.5,45.7,26.1
		"/>
	<path fill="#FFFFFF" d="M54.4,26.1c0-0.9-0.6-1.6-1.5-1.6c-0.9,0-1.5,0.7-1.5,1.6c0,0.9,0.6,1.6,1.5,1.6
		C53.8,27.7,54.4,27,54.4,26.1 M50.6,26.1c0-1.3,1-2.3,2.3-2.3c1.3,0,2.3,1,2.3,2.3c0,1.3-1,2.3-2.3,2.3
		C51.6,28.4,50.6,27.4,50.6,26.1"/>
	<rect x="56.1" y="25.7" fill="#FFFFFF" width="1.6" height="0.6"/>
	<path fill="#FFFFFF" d="M62.4,26.1c0-0.9-0.6-1.6-1.5-1.6c-0.9,0-1.5,0.7-1.5,1.6c0,0.9,0.6,1.6,1.5,1.6
		C61.8,27.7,62.4,27,62.4,26.1 M58.6,26.1c0-1.3,1-2.3,2.3-2.3c1.3,0,2.3,1,2.3,2.3c0,1.3-1,2.3-2.3,2.3
		C59.6,28.4,58.6,27.4,58.6,26.1"/>
	<path fill="#FFFFFF" d="M66.9,25.2c0-0.4-0.3-0.7-0.8-0.7H65v1.4h1.1C66.6,25.9,66.9,25.7,66.9,25.2 M64.3,28.3v-4.5h2
		c0.9,0,1.5,0.6,1.5,1.4c0,0.8-0.5,1.4-1.5,1.4H65v1.7H64.3z"/>
</g>
</svg>
